<svg width="70" height="80" viewBox="0 0 70 80" fill="none" xmlns="http://www.w3.org/2000/svg">
<path d="M8.1564 66.8164C6.08403 66.8164 4.30472 66.0837 2.81848 64.6184C1.35317 63.1322 0.620514 61.3529 0.620514 59.2805C0.620514 57.2291 1.35317 55.4707 2.81848 54.0054C4.30472 52.5401 6.08403 51.8074 8.1564 51.8074C10.166 51.8074 11.9243 52.5401 13.4315 54.0054C14.9387 55.4707 15.6923 57.2291 15.6923 59.2805C15.6923 60.6621 15.3364 61.9285 14.6247 63.0798C13.9339 64.2102 13.0233 65.1208 11.8929 65.8116C10.7626 66.4815 9.51705 66.8164 8.1564 66.8164ZM8.1564 33.0305C6.08403 33.0305 4.30472 32.2978 2.81848 30.8325C1.35317 29.3672 0.620514 27.5879 0.620514 25.4946C0.620514 23.4432 1.35317 21.6953 2.81848 20.2509C4.30472 18.7856 6.08403 18.0529 8.1564 18.0529C10.166 18.0529 11.9243 18.7856 13.4315 20.2509C14.9387 21.6953 15.6923 23.4432 15.6923 25.4946C15.6923 26.8971 15.3364 28.174 14.6247 29.3254C13.9339 30.4557 13.0233 31.3559 11.8929 32.0257C10.7626 32.6956 9.51705 33.0305 8.1564 33.0305ZM69.6838 40.221C69.6838 48.029 68.6371 55.209 66.5438 61.7611C64.4714 68.3131 61.2896 74.3837 56.9984 79.9728H44.2188C45.8515 77.9004 47.3692 75.3675 48.7717 72.3741C50.1742 69.3807 51.3988 66.1151 52.4454 62.5775C53.4921 59.0188 54.3085 55.3346 54.8946 51.5248C55.4807 47.715 55.7738 43.9471 55.7738 40.221C55.7738 35.2599 55.2609 30.2569 54.2352 25.212C53.2304 20.1462 51.8488 15.4572 50.0905 11.145C48.353 6.8119 46.3958 3.26376 44.2188 0.500598H56.9984C61.2896 6.08971 64.4714 12.1603 66.5438 18.7123C68.6371 25.2644 69.6838 32.4339 69.6838 40.221Z" fill="#9C2BAD"/>
</svg>
